<svg xmlns="http://www.w3.org/2000/svg" style="isolation:isolate" viewBox="47 59.5 52 48"><g fill="rgba(30, 30, 36, 0.8)"><path d="M90 87.551V67.5c0-1.654-1.346-3-3-3H71.959a.987.987 0 0 1-.776-.374l-2.8-3.498a2.987 2.987 0 0 0-2.347-1.128H50.005A3.008 3.008 0 0 0 47 62.505V95.5c0 1.654 1.346 3 3 3h25.051c.503 5.046 4.773 9 9.949 9h4c5.514 0 10-4.486 10-10 0-5.176-3.954-9.446-9-9.949zm-9.33.949H76v2h1.871a9.97 9.97 0 0 0-2.82 6H54v-26h34v17h-3a9.934 9.934 0 0 0-4.33 1zM66.82 61.877l2.1 2.623h-5.961a.987.987 0 0 1-.776-.374L60.081 61.5h5.955c.308 0 .593.137.784.377zM49 62.505c0-.554.451-1.005 1.005-1.005h7.031c.308 0 .593.137.784.377l2.8 3.498a2.974 2.974 0 0 0 2.339 1.125H87a1 1 0 0 1 1 1v1H49v-5.995zM49 95.5v-25h5v26h-4a1 1 0 0 1-1-1zm40 10h-4c-4.411 0-8-3.589-8-8s3.589-8 8-8h4c4.411 0 8 3.589 8 8s-3.589 8-8 8z"/><path d="M53.454 73.5h13.571v2.714H53.454zM69.74 73.5h13.571v2.714H69.74zM75.169 78.929h8.143v2.714h-8.143zM64.312 78.929h8.143v2.714h-8.143zM75.169 84.357h8.143v2.714h-8.143zM64.312 84.357h8.143v2.714h-8.143zM53.454 89.786h13.571V92.5H53.454zM92 95.5c0-1.654-1.346-3-3-3h-1v2h1a1 1 0 0 1 1 1c0 .768.29 1.469.766 2a2.985 2.985 0 0 0-.766 2 1 1 0 0 1-1 1h-1v2h1c1.654 0 3-1.346 3-3a1 1 0 0 1 1-1h1v-2h-1a1 1 0 0 1-1-1zM82 95.5a1 1 0 0 1-1 1h-1v2h1a1 1 0 0 1 1 1c0 1.654 1.346 3 3 3h1v-2h-1a1 1 0 0 1-1-1c0-.768-.29-1.469-.766-2a2.985 2.985 0 0 0 .766-2 1 1 0 0 1 1-1h1v-2h-1c-1.654 0-3 1.346-3 3z"/></g></svg>